<svg width="403px" height="631px"
 viewBox="0.00 0.00 290.50 454.00" xmlns="http://www.w3.org/2000/svg" xmlns:xlink="http://www.w3.org/1999/xlink">
<g id="graph0" class="graph" transform="scale(1.0007919936640506 1.0007919936640506) rotate(0.0) translate(4.0 450.0)">
<polygon fill="white" stroke="transparent" points="-4,4 -4,-450 286.5,-450 286.5,4 -4,4"/>
<text text-anchor="middle" x="141.25" y="-410.5" font-family="Times,serif" font-size="35.00">app</text>
<!-- :app -->
<g id="node1" class="node">
<title>:app</title>
<polygon fill="#66bb6a" stroke="black" points="103,-396 49,-396 49,-360 103,-360 103,-396"/>
<text text-anchor="middle" x="76" y="-373.8" font-family="Times,serif" font-size="14.00">:app</text>
</g>
<!-- :depconstraints -->
<g id="node2" class="node">
<title>:depconstraints</title>
<ellipse fill="#bdbdbd" stroke="black" cx="213" cy="-18" rx="69.5" ry="18"/>
<text text-anchor="middle" x="213" y="-13.8" font-family="Times,serif" font-size="14.00">:depconstraints</text>
</g>
<!-- :app&#45;&gt;:depconstraints -->
<g id="edge1" class="edge">
<title>:app&#45;&gt;:depconstraints</title>
<path fill="none" stroke="black" d="M59.51,-359.77C37.16,-334.53 0,-285.05 0,-235 0,-235 0,-235 0,-161 0,-88.02 87.64,-50.24 150.49,-32.53"/>
<polygon fill="black" stroke="black" points="151.61,-35.85 160.35,-29.85 149.78,-29.09 151.61,-35.85"/>
</g>
<!-- :common -->
<g id="node3" class="node">
<title>:common</title>
<ellipse fill="#66bb6a" stroke="black" cx="175" cy="-90" rx="47.53" ry="18"/>
<text text-anchor="middle" x="175" y="-85.8" font-family="Times,serif" font-size="14.00">:common</text>
</g>
<!-- :app&#45;&gt;:common -->
<g id="edge2" class="edge">
<title>:app&#45;&gt;:common</title>
<path fill="none" stroke="black" stroke-dasharray="1,5" d="M69.17,-359.83C54.08,-318.84 22.51,-213.5 66,-144 78.98,-123.26 102.66,-110.42 124.64,-102.59"/>
<polygon fill="black" stroke="black" points="125.84,-105.88 134.25,-99.43 123.65,-99.23 125.84,-105.88"/>
</g>
<!-- :entity -->
<g id="node4" class="node">
<title>:entity</title>
<ellipse fill="#66bb6a" stroke="black" cx="111" cy="-162" rx="35.93" ry="18"/>
<text text-anchor="middle" x="111" y="-157.8" font-family="Times,serif" font-size="14.00">:entity</text>
</g>
<!-- :app&#45;&gt;:entity -->
<g id="edge3" class="edge">
<title>:app&#45;&gt;:entity</title>
<path fill="none" stroke="black" stroke-dasharray="1,5" d="M78.81,-359.85C84.87,-322.75 99.26,-234.81 106.57,-190.1"/>
<polygon fill="black" stroke="black" points="110.02,-190.67 108.18,-180.23 103.11,-189.54 110.02,-190.67"/>
</g>
<!-- :data -->
<g id="node5" class="node">
<title>:data</title>
<ellipse fill="#66bb6a" stroke="black" cx="172" cy="-234" rx="29.61" ry="18"/>
<text text-anchor="middle" x="172" y="-229.8" font-family="Times,serif" font-size="14.00">:data</text>
</g>
<!-- :app&#45;&gt;:data -->
<g id="edge4" class="edge">
<title>:app&#45;&gt;:data</title>
<path fill="none" stroke="black" stroke-dasharray="1,5" d="M86.6,-359.72C97.81,-341.63 116.17,-312.5 133,-288 139.67,-278.3 147.29,-267.82 154.01,-258.76"/>
<polygon fill="black" stroke="black" points="156.94,-260.68 160.13,-250.58 151.34,-256.49 156.94,-260.68"/>
</g>
<!-- :domain -->
<g id="node6" class="node">
<title>:domain</title>
<ellipse fill="#66bb6a" stroke="black" cx="185" cy="-306" rx="42.88" ry="18"/>
<text text-anchor="middle" x="185" y="-301.8" font-family="Times,serif" font-size="14.00">:domain</text>
</g>
<!-- :app&#45;&gt;:domain -->
<g id="edge5" class="edge">
<title>:app&#45;&gt;:domain</title>
<path fill="none" stroke="black" stroke-dasharray="1,5" d="M102.66,-359.88C118.19,-349.9 137.84,-337.29 154.05,-326.88"/>
<polygon fill="black" stroke="black" points="156.13,-329.7 162.65,-321.35 152.35,-323.81 156.13,-329.7"/>
</g>
<!-- :common&#45;&gt;:depconstraints -->
<g id="edge6" class="edge">
<title>:common&#45;&gt;:depconstraints</title>
<path fill="none" stroke="black" d="M184.2,-72.05C188.57,-64.01 193.89,-54.2 198.76,-45.23"/>
<polygon fill="black" stroke="black" points="201.93,-46.73 203.62,-36.28 195.78,-43.39 201.93,-46.73"/>
</g>
<!-- :entity&#45;&gt;:common -->
<g id="edge7" class="edge">
<title>:entity&#45;&gt;:common</title>
<path fill="none" stroke="black" stroke-dasharray="1,5" d="M125.2,-145.46C133.42,-136.48 143.93,-124.98 153.18,-114.87"/>
<polygon fill="black" stroke="black" points="155.78,-117.21 159.94,-107.47 150.61,-112.49 155.78,-117.21"/>
</g>
<!-- :data&#45;&gt;:depconstraints -->
<g id="edge8" class="edge">
<title>:data&#45;&gt;:depconstraints</title>
<path fill="none" stroke="black" d="M182.67,-216.89C197.2,-193.89 222.49,-149.78 232,-108 235.55,-92.4 234.74,-87.76 232,-72 230.48,-63.24 227.64,-54.01 224.61,-45.75"/>
<polygon fill="black" stroke="black" points="227.79,-44.29 220.89,-36.25 221.28,-46.84 227.79,-44.29"/>
</g>
<!-- :data&#45;&gt;:common -->
<g id="edge9" class="edge">
<title>:data&#45;&gt;:common</title>
<path fill="none" stroke="black" stroke-dasharray="1,5" d="M172.36,-215.87C172.87,-191.67 173.81,-147.21 174.42,-118.39"/>
<polygon fill="black" stroke="black" points="177.92,-118.26 174.64,-108.19 170.93,-118.11 177.92,-118.26"/>
</g>
<!-- :data&#45;&gt;:entity -->
<g id="edge10" class="edge">
<title>:data&#45;&gt;:entity</title>
<path fill="none" stroke="black" stroke-dasharray="1,5" d="M158.76,-217.81C150.72,-208.58 140.29,-196.61 131.23,-186.22"/>
<polygon fill="black" stroke="black" points="133.84,-183.88 124.63,-178.64 128.56,-188.48 133.84,-183.88"/>
</g>
<!-- :domain&#45;&gt;:depconstraints -->
<g id="edge11" class="edge">
<title>:domain&#45;&gt;:depconstraints</title>
<path fill="none" stroke="black" d="M200.72,-289.24C209.61,-279.37 220.09,-265.92 226,-252 251.28,-192.47 242.32,-172.51 247,-108 248.16,-92.04 251.5,-87.35 247,-72 244.12,-62.19 238.81,-52.47 233.23,-44.09"/>
<polygon fill="black" stroke="black" points="236.05,-42.02 227.4,-35.9 230.34,-46.07 236.05,-42.02"/>
</g>
<!-- :domain&#45;&gt;:common -->
<g id="edge12" class="edge">
<title>:domain&#45;&gt;:common</title>
<path fill="none" stroke="black" stroke-dasharray="1,5" d="M195.51,-288.55C201.33,-278.44 207.99,-264.98 211,-252 222.03,-204.47 202.43,-148.89 188.09,-117.03"/>
<polygon fill="black" stroke="black" points="191.25,-115.52 183.85,-107.94 184.91,-118.48 191.25,-115.52"/>
</g>
<!-- :domain&#45;&gt;:entity -->
<g id="edge13" class="edge">
<title>:domain&#45;&gt;:entity</title>
<path fill="none" stroke="black" stroke-dasharray="1,5" d="M165.55,-289.76C154.45,-280.07 141.17,-266.63 133,-252 122.3,-232.83 116.74,-208.48 113.89,-190.1"/>
<polygon fill="black" stroke="black" points="117.34,-189.48 112.51,-180.05 110.41,-190.43 117.34,-189.48"/>
</g>
<!-- :domain&#45;&gt;:data -->
<g id="edge14" class="edge">
<title>:domain&#45;&gt;:data</title>
<path fill="none" stroke="black" stroke-dasharray="1,5" d="M181.79,-287.7C180.35,-279.98 178.63,-270.71 177.04,-262.11"/>
<polygon fill="black" stroke="black" points="180.44,-261.3 175.18,-252.1 173.56,-262.58 180.44,-261.3"/>
</g>
</g>
</svg>
